<mxfile host="app.diagrams.net" agent="Mozilla/5.0 (Windows NT 10.0; Win64; x64) AppleWebKit/537.36 (KHTML, like Gecko) Chrome/130.0.0.0 Safari/537.36" version="24.8.4">
  <diagram id="prtHgNgQTEPvFCAcTncT" name="Page-1">
    <mxGraphModel dx="1562" dy="810" grid="1" gridSize="10" guides="1" tooltips="1" connect="1" arrows="1" fold="1" page="1" pageScale="1" pageWidth="827" pageHeight="1169" math="0" shadow="0">
      <root>
        <mxCell id="0" />
        <mxCell id="1" parent="0" />
        <mxCell id="22M5ryU6tScHN-uPnKEi-7" style="edgeStyle=orthogonalEdgeStyle;rounded=0;orthogonalLoop=1;jettySize=auto;html=1;exitX=0.5;exitY=1;exitDx=0;exitDy=0;labelBackgroundColor=none;fontColor=default;" edge="1" parent="1" source="22M5ryU6tScHN-uPnKEi-1" target="22M5ryU6tScHN-uPnKEi-6">
          <mxGeometry relative="1" as="geometry" />
        </mxCell>
        <mxCell id="22M5ryU6tScHN-uPnKEi-8" style="edgeStyle=orthogonalEdgeStyle;rounded=0;orthogonalLoop=1;jettySize=auto;html=1;exitX=0.5;exitY=1;exitDx=0;exitDy=0;entryX=0.5;entryY=0;entryDx=0;entryDy=0;labelBackgroundColor=none;fontColor=default;" edge="1" parent="1" source="22M5ryU6tScHN-uPnKEi-1" target="22M5ryU6tScHN-uPnKEi-5">
          <mxGeometry relative="1" as="geometry" />
        </mxCell>
        <mxCell id="22M5ryU6tScHN-uPnKEi-10" style="edgeStyle=orthogonalEdgeStyle;rounded=0;orthogonalLoop=1;jettySize=auto;html=1;exitX=0.5;exitY=1;exitDx=0;exitDy=0;labelBackgroundColor=none;fontColor=default;" edge="1" parent="1" source="22M5ryU6tScHN-uPnKEi-1" target="22M5ryU6tScHN-uPnKEi-2">
          <mxGeometry relative="1" as="geometry" />
        </mxCell>
        <mxCell id="22M5ryU6tScHN-uPnKEi-1" value="&lt;span style=&quot;font-size: 12pt;&quot;&gt;求二叉树中结点的祖先算法系统&lt;/span&gt;" style="rounded=0;whiteSpace=wrap;html=1;labelBackgroundColor=none;fontFamily=Helvetica;" vertex="1" parent="1">
          <mxGeometry x="354" y="140" width="120" height="60" as="geometry" />
        </mxCell>
        <mxCell id="22M5ryU6tScHN-uPnKEi-2" value="二叉树构建" style="rounded=0;whiteSpace=wrap;html=1;labelBackgroundColor=none;" vertex="1" parent="1">
          <mxGeometry x="200" y="250" width="120" height="60" as="geometry" />
        </mxCell>
        <mxCell id="22M5ryU6tScHN-uPnKEi-5" value="查询祖先(核心算法）" style="rounded=0;whiteSpace=wrap;html=1;labelBackgroundColor=none;" vertex="1" parent="1">
          <mxGeometry x="510" y="250" width="120" height="60" as="geometry" />
        </mxCell>
        <mxCell id="22M5ryU6tScHN-uPnKEi-6" value="可视化二叉树" style="rounded=0;whiteSpace=wrap;html=1;labelBackgroundColor=none;" vertex="1" parent="1">
          <mxGeometry x="354" y="250" width="120" height="60" as="geometry" />
        </mxCell>
        <mxCell id="22M5ryU6tScHN-uPnKEi-17" style="edgeStyle=orthogonalEdgeStyle;rounded=0;orthogonalLoop=1;jettySize=auto;html=1;exitX=0.5;exitY=1;exitDx=0;exitDy=0;" edge="1" parent="1" source="22M5ryU6tScHN-uPnKEi-11" target="22M5ryU6tScHN-uPnKEi-12">
          <mxGeometry relative="1" as="geometry" />
        </mxCell>
        <mxCell id="22M5ryU6tScHN-uPnKEi-18" style="edgeStyle=orthogonalEdgeStyle;rounded=0;orthogonalLoop=1;jettySize=auto;html=1;exitX=0.5;exitY=1;exitDx=0;exitDy=0;" edge="1" parent="1" source="22M5ryU6tScHN-uPnKEi-11" target="22M5ryU6tScHN-uPnKEi-14">
          <mxGeometry relative="1" as="geometry" />
        </mxCell>
        <mxCell id="22M5ryU6tScHN-uPnKEi-19" style="edgeStyle=orthogonalEdgeStyle;rounded=0;orthogonalLoop=1;jettySize=auto;html=1;exitX=0.5;exitY=1;exitDx=0;exitDy=0;" edge="1" parent="1" source="22M5ryU6tScHN-uPnKEi-11" target="22M5ryU6tScHN-uPnKEi-13">
          <mxGeometry relative="1" as="geometry" />
        </mxCell>
        <mxCell id="22M5ryU6tScHN-uPnKEi-11" value="&lt;font style=&quot;font-size: 16px;&quot;&gt;程序中括号配对分析器&lt;/font&gt;" style="rounded=0;whiteSpace=wrap;html=1;" vertex="1" parent="1">
          <mxGeometry x="354" y="400" width="120" height="60" as="geometry" />
        </mxCell>
        <mxCell id="22M5ryU6tScHN-uPnKEi-12" value="简易词法分析算法" style="rounded=0;whiteSpace=wrap;html=1;" vertex="1" parent="1">
          <mxGeometry x="210" y="510" width="120" height="60" as="geometry" />
        </mxCell>
        <mxCell id="22M5ryU6tScHN-uPnKEi-13" value="删去多余括号" style="rounded=0;whiteSpace=wrap;html=1;" vertex="1" parent="1">
          <mxGeometry x="500" y="510" width="120" height="60" as="geometry" />
        </mxCell>
        <mxCell id="22M5ryU6tScHN-uPnKEi-14" value="检查括号配对情况" style="rounded=0;whiteSpace=wrap;html=1;" vertex="1" parent="1">
          <mxGeometry x="354" y="510" width="120" height="60" as="geometry" />
        </mxCell>
      </root>
    </mxGraphModel>
  </diagram>
</mxfile>
